<svg id="Group_173" data-name="Group 173" xmlns="http://www.w3.org/2000/svg" width="33.106" height="33.107" viewBox="0 0 33.106 33.107">
  <path id="Path_76" data-name="Path 76" d="M68.167,82.083a.822.822,0,1,0,.822.822.822.822,0,0,0-.822-.822" transform="translate(-51.907 -60.915)" fill="#fff"/>
  <path id="Path_77" data-name="Path 77" d="M71.782,82.062a.822.822,0,1,0,.822.822.822.822,0,0,0-.822-.822" transform="translate(-52.615 -60.911)" fill="#fff"/>
  <path id="Path_78" data-name="Path 78" d="M71.782,78.541a.822.822,0,1,0,.822.822.822.822,0,0,0-.822-.822" transform="translate(-52.615 -60.221)" fill="#fff"/>
  <path id="Path_79" data-name="Path 79" d="M71.782,75.041a.822.822,0,1,0,.822.822.822.822,0,0,0-.822-.822" transform="translate(-52.615 -59.536)" fill="#fff"/>
  <path id="Path_80" data-name="Path 80" d="M68.167,75.061a.822.822,0,1,0,.822.822.822.822,0,0,0-.822-.822" transform="translate(-51.907 -59.54)" fill="#fff"/>
  <path id="Path_81" data-name="Path 81" d="M68.167,78.562a.822.822,0,1,0,.822.822.822.822,0,0,0-.822-.822" transform="translate(-51.907 -60.225)" fill="#fff"/>
  <path id="Path_82" data-name="Path 82" d="M75.4,75.041a.822.822,0,1,0,.821.822.821.821,0,0,0-.821-.822" transform="translate(-53.323 -59.536)" fill="#fff"/>
  <path id="Path_83" data-name="Path 83" d="M64.7,55.76A16.553,16.553,0,1,0,81.253,72.313,16.553,16.553,0,0,0,64.7,55.76M56.118,76.853v-9.08a1,1,0,0,1,1.042-.959h2.309a1,1,0,0,1,1.042.958v9.08a1,1,0,0,1-1.042.959H57.16a1,1,0,0,1-1.042-.959m17.456,1.973a1.723,1.723,0,0,1-1.723,1.723H60.039a1.721,1.721,0,0,1-1.69-1.4h1.3a2.1,2.1,0,0,0,2.1-2.095V67.576a2.1,2.1,0,0,0-2.1-2.1H58.326a1.718,1.718,0,0,1,1.713-1.625H71.851a1.723,1.723,0,0,1,1.723,1.723Z" transform="translate(-48.147 -55.76)" fill="#fff"/>
  <path id="Path_84" data-name="Path 84" d="M74.059,68.576h-6.6a.46.46,0,0,0-.46.46v2.453a.46.46,0,0,0,.46.46h6.6a.46.46,0,0,0,.46-.46V69.036a.46.46,0,0,0-.46-.46" transform="translate(-51.533 -58.218)" fill="#fff"/>
  <path id="Path_85" data-name="Path 85" d="M75.4,82.062a.822.822,0,1,0,.821.822.821.821,0,0,0-.821-.822" transform="translate(-53.323 -60.911)" fill="#fff"/>
  <path id="Path_86" data-name="Path 86" d="M75.4,78.541a.822.822,0,1,0,.821.822.821.821,0,0,0-.821-.822" transform="translate(-53.323 -60.221)" fill="#fff"/>
</svg>
