<svg xmlns="http://www.w3.org/2000/svg" width="33.106" height="33.106" viewBox="0 0 33.106 33.106">
  <path id="Path_88" data-name="Path 88" d="M188.013,7.5a16.553,16.553,0,1,0,16.553,16.553A16.554,16.554,0,0,0,188.013,7.5M180.74,31.57a1.594,1.594,0,1,1,1.594-1.594,1.595,1.595,0,0,1-1.594,1.594m0-5.918a1.595,1.595,0,1,1,1.594-1.6,1.6,1.6,0,0,1-1.594,1.6m0-5.919a1.595,1.595,0,1,1,1.594-1.594,1.595,1.595,0,0,1-1.594,1.594m15.045,11.339h-10.26a1.1,1.1,0,1,1,0-2.192h10.26a1.1,1.1,0,0,1,0,2.192m0-5.918h-10.26a1.1,1.1,0,0,1,0-2.193h10.26a1.1,1.1,0,0,1,0,2.193m0-5.919h-10.26a1.1,1.1,0,1,1,0-2.192h10.26a1.1,1.1,0,0,1,0,2.192" transform="translate(-171.46 -7.504)" fill="#fff"/>
</svg>
