<svg xmlns="http://www.w3.org/2000/svg" width="33.106" height="33.107" viewBox="0 0 33.106 33.107">
  <g id="Group_172" data-name="Group 172" transform="translate(0)">
    <path id="Path_72" data-name="Path 72" d="M70.341,18.687,65.21,22.23a.841.841,0,0,1-.951,0l-5.131-3.543a.74.74,0,1,0-.841,1.219l5.131,3.542a2.331,2.331,0,0,0,2.635,0l5.131-3.542a.741.741,0,0,0-.842-1.219" transform="translate(-48.181 -6.213)" fill="#fff"/>
    <path id="Path_73" data-name="Path 73" d="M62.988,3.381A16.553,16.553,0,1,0,79.541,19.934,16.553,16.553,0,0,0,62.988,3.381m9.549,21.684a1.555,1.555,0,0,1-1.554,1.554H54.994a1.554,1.554,0,0,1-1.554-1.554V14.8a1.554,1.554,0,0,1,1.554-1.554H70.982A1.555,1.555,0,0,1,72.537,14.8Z" transform="translate(-46.435 -3.381)" fill="#fff"/>
  </g>
</svg>
