<svg xmlns="http://www.w3.org/2000/svg" width="33.106" height="33.105" viewBox="0 0 33.106 33.105">
  <path id="Path_71" data-name="Path 71" d="M16.553,57.119A16.552,16.552,0,1,0,33.106,73.672,16.553,16.553,0,0,0,16.553,57.119M26.178,79.8q-.879.9-1.776,1.777a3.48,3.48,0,0,1-2.747.894,8.074,8.074,0,0,1-3.08-.8,19.474,19.474,0,0,1-9.413-9.032,8.623,8.623,0,0,1-1.09-4.387,3.094,3.094,0,0,1,.9-2.156c.571-.56,1.129-1.133,1.7-1.694a1,1,0,0,1,1.6.006c.649.642,2.042,2.035,2.683,2.683a.983.983,0,0,1-.012,1.54c-.581.587-.469.464-1.047,1.051a1.121,1.121,0,0,0-.011,1.748l5.22,5.221a1.126,1.126,0,0,0,1.749-.013c.578-.57.446-.451,1.023-1.022a.992.992,0,0,1,1.6-.007c.658.649,2.051,2.043,2.7,2.7a.968.968,0,0,1,.007,1.486" transform="translate(0 -57.119)" fill="#fff"/>
</svg>
